<?xml version="1.0" encoding="UTF-8" standalone="no"?><!DOCTYPE svg PUBLIC "-//W3C//DTD SVG 1.1//EN" "http://www.w3.org/Graphics/SVG/1.1/DTD/svg11.dtd"><svg width="100%" height="100%" viewBox="0 0 8406 8406" version="1.1" xmlns="http://www.w3.org/2000/svg" xmlns:xlink="http://www.w3.org/1999/xlink" xml:space="preserve" xmlns:serif="http://www.serif.com/" style="fill-rule:evenodd;clip-rule:evenodd;stroke-linejoin:round;stroke-miterlimit:2;"><rect x="2.822" y="2.822" width="8400" height="8400" style="fill:#fff;"/><rect id="logo" x="0" y="0" width="8405.643" height="8405.643" style="fill:none;"/><g id="Layer1"><g id="Horse"><path d="M772.9,6588.439c38.1,-243.835 151.37,-298.597 265.687,-363.497c14.81,-8.408 -5.904,-242.254 206.376,-370.234c67.244,-40.54 40.959,-56.55 36.146,-134.353c-64.632,-1044.698 925.182,-1510.051 994.517,-1951.551c8.625,-54.924 25.64,-93.07 -28.232,-73.343c-317.045,116.096 -444.472,-57.073 -693.41,78.409c-153.076,83.31 -74.984,208.575 -332.604,269.928c-135.155,32.187 -141.362,57.869 -264.708,-4.907c-279.683,-142.342 -376.901,-174.026 -396.793,-616.247c-6.974,-155.034 28.406,-153.394 593.001,-727.591c143.371,-145.809 143.562,-426.366 709.764,-676.927c64.655,-28.612 47.52,-44.374 47.299,-113.064c-0.369,-114.612 0.126,-369.047 0.188,-401.138c0.055,-28.293 -1.138,-40.009 27.911,-34.038c305.482,62.796 463.091,109.106 685.292,379.812c29.642,36.113 243.779,56.342 449.817,155.386c598.821,287.858 568.309,422.188 1292.308,428.619c115.176,1.023 142.464,109.178 95.571,184.589c-47.14,75.808 -393.788,60.936 -647.903,-15.748c-65.737,-19.837 170.108,232.806 99.648,233.051c-218.309,0.76 -245.422,4.289 -262.13,-21.393c-51.979,-79.897 -371.38,-570.85 -974.388,-698.982c-121.833,-25.888 -141.541,0.375 -212.685,-99.353c-113.081,-158.514 -295.488,-253.989 -305.071,-254.382c-29.566,-1.213 -6.957,351.504 -14.717,381.736c-9.679,37.707 -507.118,132.631 -687.458,522.468c-94.65,204.603 -401.388,440.959 -653.334,715.064c-15.989,17.396 -31.214,33.96 30.835,291.404c8.373,34.741 6.974,41.265 136.516,113.818c114.675,64.226 121.912,51.52 218.531,21.18c78.334,-24.599 72.13,-133.165 220.819,-219.269c371.05,-214.871 482.358,-27.04 716.254,-98.665c444.472,-136.108 403.683,-453.388 463.538,-499.28c137.811,-105.663 225.565,240.789 -15.662,505.211c-66.048,72.399 -39.605,84.142 -40.411,133.505c-13.257,812.236 -1104.174,1014.063 -1007.789,2146.775c3.275,38.492 61.43,30.063 246.574,29.583c45.778,-0.119 20.252,-24.498 16.269,-106.212c-10.459,-214.574 56.778,-516.115 220.108,-755.654c195.849,-287.231 824.008,-789.556 752.375,-1401.347c-0.701,-5.984 -29.068,-248.262 11.896,-74.385c205.452,872.063 -531.442,1311.599 -678.064,1744.733c-55.156,162.935 -91.691,345.374 -59.616,541.489c10.708,65.473 33.096,51.264 101.294,51.243c1340.495,-0.412 1340.2,10.789 1456.15,-0.234c36.694,-3.489 15.087,-21.64 5.399,-127.632c-37.936,-415.046 146.249,-815.277 158.702,-825.727c13.016,-10.922 242.247,-6.904 243.429,-6.19c15.146,9.153 -83.389,223.131 -106.099,311.917c-24.589,96.132 53.916,-145.394 592.841,-157.258c367.327,-8.086 448.402,-7.626 455.667,91.939c12.425,170.269 -128.653,135.255 -444.798,136.72c-702.002,3.254 -695.994,561.84 -626.941,608.698c315.926,214.385 151.053,335.235 242.671,390.369c254.388,153.085 263.968,247.383 257.974,664.032c-1.073,74.593 -40.259,35.635 -116.428,35.255c-3188.496,-15.899 -3188.277,9.34 -3465.357,0.424c-26.914,-0.866 -18.021,-136.959 -16.767,-338.757Zm657.334,-545.962c-30.323,5.338 -114.735,3.947 -134.22,133.606c-4.159,27.675 18.04,17.082 575.607,19.757c157.661,0.756 1953.785,9.372 1970.783,-3.315c23.169,-17.293 -34.939,-148.811 -116.786,-149.936c-183.613,-2.523 -182.737,-0.451 -2295.383,-0.112Zm-298.452,403.448c-17.477,10.03 -137.193,78.73 -121.534,217.997c3.701,32.914 23.901,21.518 1015.851,22.574c166.851,0.178 2063.304,2.196 2085.639,-0.112c35.465,-3.665 43.76,-250.415 -187.607,-253.611c-1097.491,-15.163 -2436.554,-2.342 -2648.417,-0.313c-73.715,0.706 -73.26,-5.179 -143.932,13.465Z" style="fill:#0085ad;"/><path d="M1717.279,2781.377c-63.204,-4.275 -106.244,-0.209 -92.924,-32.274c65.941,-158.749 157.719,-171.344 323.707,-218.204c30.806,-8.697 32.476,4.564 26.035,36.073c-55.039,269.237 -217.933,214.844 -256.817,214.405Z" style="fill:#0085ad;"/></g><g id="keyboard"><path d="M6017.564,3201.696l0,1231.762c0,128.325 -104.183,232.508 -232.508,232.508l-2444.88,0c-128.325,0 -232.508,-104.183 -232.508,-232.508l0,-1231.762c0,-128.325 104.183,-232.508 232.508,-232.508l2444.88,0c128.325,0 232.508,104.183 232.508,232.508Zm-195.695,40.012c0,-38.026 -30.872,-68.898 -68.898,-68.898l-2372.203,0c-38.026,0 -68.898,30.872 -68.898,68.898l0,1167.294c0,38.026 30.872,68.898 68.898,68.898l2372.203,0c38.026,0 68.898,-30.872 68.898,-68.898l0,-1167.294Zm-569.194,95.254l0,217.321l-221.22,0l0,-217.321l221.22,0Zm394.83,757.274l0,217.321l-221.22,0l0,-217.321l221.22,0Zm0,-757.274l0,217.321l-221.22,0l0,-217.321l221.22,0Zm-780.516,0l0,217.321l-221.22,0l0,-217.321l221.22,0Zm-1177.255,757.274l0,217.321l-221.22,0l0,-217.321l221.22,0Zm5.018,-757.274l0,217.321l-221.22,0l0,-217.321l221.22,0Zm966.995,382.292l0,217.321l-221.22,0l0,-217.321l221.22,0Zm392.724,0l0,217.321l-221.22,0l0,-217.321l221.22,0Zm-964.498,-382.292l0,217.321l-221.22,0l0,-217.321l221.22,0Zm186.075,382.292l0,217.321l-221.22,0l0,-217.321l221.22,0Zm195.634,-382.292l0,217.321l-221.22,0l0,-217.321l221.22,0Zm-566.385,382.292l0,217.321l-433.932,0l0,-217.321l433.932,0Zm1353.129,376.761l0,217.321l-1395.389,0l0,-217.321l1395.389,0Zm397.969,-376.761l0,217.321l-433.932,0l0,-217.321l433.932,0Z" style="fill:#0085ad;"/></g><g id="numbers"><path d="M5726.912,2124.978l110.777,0c30.071,0 55.941,10.752 77.611,32.257c21.669,21.504 32.504,47.027 32.504,76.569l0,271.085c0,29.541 -10.835,55.064 -32.504,76.569c-21.669,21.504 -47.539,32.257 -77.611,32.257l-110.777,0c-30.071,0 -56.052,-10.644 -77.942,-31.931c-21.89,-21.287 -32.835,-46.919 -32.835,-76.894l0,-271.085c0,-29.976 10.945,-55.607 32.835,-76.894c21.89,-21.287 47.871,-31.931 77.942,-31.931Zm1.327,389.033c2.653,14.771 8.513,26.066 17.578,33.886c9.066,7.82 21.116,11.73 36.152,11.73c15.478,0 28.634,-5.43 39.469,-16.291c10.835,-10.861 16.252,-23.677 16.252,-38.447l0,-184.416l-109.451,193.539Zm108.787,-289.983c-7.96,-29.976 -26.312,-44.964 -55.057,-44.964c-15.036,0 -27.971,5.322 -38.805,15.965c-10.835,10.644 -16.252,23.568 -16.252,38.773l0,184.416l110.114,-194.191Z" style="fill:#0085ad;fill-rule:nonzero;"/><path d="M6173.393,2224.533l110.777,0c30.071,0 55.941,10.752 77.611,32.257c21.669,21.504 32.504,47.027 32.504,76.569l0,271.085c0,29.541 -10.835,55.064 -32.504,76.569c-21.669,21.504 -47.539,32.257 -77.611,32.257l-110.777,0c-30.071,0 -56.052,-10.644 -77.942,-31.931c-21.89,-21.287 -32.835,-46.919 -32.835,-76.894l0,-271.085c0,-29.976 10.945,-55.607 32.835,-76.894c21.89,-21.287 47.871,-31.931 77.942,-31.931Zm1.327,389.033c2.653,14.771 8.513,26.066 17.578,33.886c9.066,7.82 21.116,11.73 36.152,11.73c15.478,0 28.634,-5.43 39.469,-16.291c10.835,-10.861 16.252,-23.677 16.252,-38.447l0,-184.416l-109.451,193.539Zm108.787,-289.983c-7.96,-29.976 -26.312,-44.964 -55.057,-44.964c-15.036,0 -27.971,5.322 -38.805,15.965c-10.835,10.644 -16.252,23.568 -16.252,38.773l0,184.416l110.114,-194.191Z" style="fill:#0085ad;fill-rule:nonzero;"/><path d="M7064.101,2821.093l110.777,0c30.071,0 55.941,10.752 77.611,32.257c21.669,21.504 32.504,47.027 32.504,76.569l0,271.085c0,29.541 -10.835,55.064 -32.504,76.569c-21.669,21.504 -47.539,32.257 -77.611,32.257l-110.777,0c-30.071,0 -56.052,-10.644 -77.942,-31.931c-21.89,-21.287 -32.835,-46.919 -32.835,-76.894l0,-271.085c0,-29.976 10.945,-55.607 32.835,-76.894c21.89,-21.287 47.871,-31.931 77.942,-31.931Zm1.327,389.033c2.653,14.771 8.513,26.066 17.578,33.886c9.066,7.82 21.116,11.73 36.152,11.73c15.478,0 28.634,-5.43 39.469,-16.291c10.835,-10.861 16.252,-23.677 16.252,-38.447l0,-184.416l-109.451,193.539Zm108.787,-289.983c-7.96,-29.976 -26.312,-44.964 -55.057,-44.964c-15.036,0 -27.971,5.322 -38.805,15.965c-10.835,10.644 -16.252,23.568 -16.252,38.773l0,184.416l110.114,-194.191Z" style="fill:#0085ad;fill-rule:nonzero;"/><path d="M7625.567,3512.76l110.777,0c30.071,0 55.941,10.752 77.611,32.257c21.669,21.504 32.504,47.027 32.504,76.569l0,271.085c0,29.541 -10.835,55.064 -32.504,76.569c-21.669,21.504 -47.539,32.257 -77.611,32.257l-110.777,0c-30.071,0 -56.052,-10.644 -77.942,-31.931c-21.89,-21.287 -32.835,-46.919 -32.835,-76.894l0,-271.085c0,-29.976 10.945,-55.607 32.835,-76.894c21.89,-21.287 47.871,-31.931 77.942,-31.931Zm1.327,389.033c2.653,14.771 8.513,26.066 17.578,33.886c9.066,7.82 21.116,11.73 36.152,11.73c15.478,0 28.634,-5.43 39.469,-16.291c10.835,-10.861 16.252,-23.677 16.252,-38.447l0,-184.416l-109.451,193.539Zm108.787,-289.983c-7.96,-29.976 -26.312,-44.964 -55.057,-44.964c-15.036,0 -27.971,5.322 -38.805,15.965c-10.835,10.644 -16.252,23.568 -16.252,38.773l0,184.416l110.114,-194.191Z" style="fill:#0085ad;fill-rule:nonzero;"/><path d="M6751.137,3539.143l110.777,0c30.071,0 55.941,10.752 77.611,32.257c21.669,21.504 32.504,47.027 32.504,76.569l0,271.085c0,29.541 -10.835,55.064 -32.504,76.569c-21.669,21.504 -47.539,32.257 -77.611,32.257l-110.777,0c-30.071,0 -56.052,-10.644 -77.942,-31.931c-21.89,-21.287 -32.835,-46.919 -32.835,-76.894l0,-271.085c0,-29.976 10.945,-55.607 32.835,-76.894c21.89,-21.287 47.871,-31.931 77.942,-31.931Zm1.327,389.033c2.653,14.771 8.513,26.066 17.578,33.886c9.066,7.82 21.116,11.73 36.152,11.73c15.478,0 28.634,-5.43 39.469,-16.291c10.835,-10.861 16.252,-23.677 16.252,-38.447l0,-184.416l-109.451,193.539Zm108.787,-289.983c-7.96,-29.976 -26.312,-44.964 -55.057,-44.964c-15.036,0 -27.971,5.322 -38.805,15.965c-10.835,10.644 -16.252,23.568 -16.252,38.773l0,184.416l110.114,-194.191Z" style="fill:#0085ad;fill-rule:nonzero;"/><path d="M6765.64,4234.364l110.777,0c30.071,0 55.941,10.752 77.611,32.257c21.669,21.504 32.504,47.027 32.504,76.569l0,271.085c0,29.541 -10.835,55.064 -32.504,76.569c-21.669,21.504 -47.539,32.257 -77.611,32.257l-110.777,0c-30.071,0 -56.052,-10.644 -77.942,-31.931c-21.89,-21.287 -32.835,-46.919 -32.835,-76.894l0,-271.085c0,-29.976 10.945,-55.607 32.835,-76.894c21.89,-21.287 47.871,-31.931 77.942,-31.931Zm1.327,389.033c2.653,14.771 8.513,26.066 17.578,33.886c9.066,7.82 21.116,11.73 36.152,11.73c15.478,0 28.634,-5.43 39.469,-16.291c10.835,-10.861 16.252,-23.677 16.252,-38.447l0,-184.416l-109.451,193.539Zm108.787,-289.983c-7.96,-29.976 -26.312,-44.964 -55.057,-44.964c-15.036,0 -27.971,5.322 -38.805,15.965c-10.835,10.644 -16.252,23.568 -16.252,38.773l0,184.416l110.114,-194.191Z" style="fill:#0085ad;fill-rule:nonzero;"/><path d="M5391.785,5015.842l110.777,0c30.071,0 55.941,10.752 77.611,32.257c21.669,21.504 32.504,47.027 32.504,76.569l0,271.085c0,29.541 -10.835,55.064 -32.504,76.569c-21.669,21.504 -47.539,32.257 -77.611,32.257l-110.777,0c-30.071,0 -56.052,-10.644 -77.942,-31.931c-21.89,-21.287 -32.835,-46.919 -32.835,-76.894l0,-271.085c0,-29.976 10.945,-55.607 32.835,-76.894c21.89,-21.287 47.871,-31.931 77.942,-31.931Zm1.327,389.033c2.653,14.771 8.513,26.066 17.578,33.886c9.066,7.82 21.116,11.73 36.152,11.73c15.478,0 28.634,-5.43 39.469,-16.291c10.835,-10.861 16.252,-23.677 16.252,-38.447l0,-184.416l-109.451,193.539Zm108.787,-289.983c-7.96,-29.976 -26.312,-44.964 -55.057,-44.964c-15.036,0 -27.971,5.322 -38.805,15.965c-10.835,10.644 -16.252,23.568 -16.252,38.773l0,184.416l110.114,-194.191Z" style="fill:#0085ad;fill-rule:nonzero;"/><path d="M6547.749,5034.984l110.777,0c30.071,0 55.941,10.752 77.611,32.257c21.669,21.504 32.504,47.027 32.504,76.569l0,271.085c0,29.541 -10.835,55.064 -32.504,76.569c-21.669,21.504 -47.539,32.257 -77.611,32.257l-110.777,0c-30.071,0 -56.052,-10.644 -77.942,-31.931c-21.89,-21.287 -32.835,-46.919 -32.835,-76.894l0,-271.085c0,-29.976 10.945,-55.607 32.835,-76.894c21.89,-21.287 47.871,-31.931 77.942,-31.931Zm1.327,389.033c2.653,14.771 8.513,26.066 17.578,33.886c9.066,7.82 21.116,11.73 36.152,11.73c15.478,0 28.634,-5.43 39.469,-16.291c10.835,-10.861 16.252,-23.677 16.252,-38.447l0,-184.416l-109.451,193.539Zm108.787,-289.983c-7.96,-29.976 -26.312,-44.964 -55.057,-44.964c-15.036,0 -27.971,5.322 -38.805,15.965c-10.835,10.644 -16.252,23.568 -16.252,38.773l0,184.416l110.114,-194.191Z" style="fill:#0085ad;fill-rule:nonzero;"/><path d="M4595.291,2663.864l0,-379.91l-55.057,0l0,-54.738l110.114,-54.087l55.72,0l0,488.735l-110.777,0Z" style="fill:#0085ad;fill-rule:nonzero;"/><path d="M5829.943,5547.425l0,-379.91l-55.057,0l0,-54.738l110.114,-54.087l55.72,0l0,488.735l-110.777,0Z" style="fill:#0085ad;fill-rule:nonzero;"/><path d="M6160.175,5566.232l0,-379.91l-55.057,0l0,-54.738l110.114,-54.087l55.72,0l0,488.735l-110.777,0Z" style="fill:#0085ad;fill-rule:nonzero;"/><path d="M6356.703,4762.059l0,-379.91l-55.057,0l0,-54.738l110.114,-54.087l55.72,0l0,488.735l-110.777,0Z" style="fill:#0085ad;fill-rule:nonzero;"/><path d="M6313.364,3999.589l0,-379.91l-55.057,0l0,-54.738l110.114,-54.087l55.72,0l0,488.735l-110.777,0Z" style="fill:#0085ad;fill-rule:nonzero;"/><path d="M6279.75,3334.003l0,-379.91l-55.057,0l0,-54.738l110.114,-54.087l55.72,0l0,488.735l-110.777,0Z" style="fill:#0085ad;fill-rule:nonzero;"/><path d="M6630.491,3330.483l0,-379.91l-55.057,0l0,-54.738l110.114,-54.087l55.72,0l0,488.735l-110.777,0Z" style="fill:#0085ad;fill-rule:nonzero;"/><path d="M7191.957,4022.151l0,-379.91l-55.057,0l0,-54.738l110.114,-54.087l55.72,0l0,488.735l-110.777,0Z" style="fill:#0085ad;fill-rule:nonzero;"/><path d="M7206.46,4717.371l0,-379.91l-55.057,0l0,-54.738l110.114,-54.087l55.72,0l0,488.735l-110.777,0Z" style="fill:#0085ad;fill-rule:nonzero;"/><path d="M4961.31,2672.944l0,-379.91l-55.057,0l0,-54.738l110.114,-54.087l55.72,0l0,488.735l-110.777,0Z" style="fill:#0085ad;fill-rule:nonzero;"/><path d="M5259.031,2624.369l0,-379.91l-55.057,0l0,-54.738l110.114,-54.087l55.72,0l0,488.735l-110.777,0Z" style="fill:#0085ad;fill-rule:nonzero;"/></g></g></svg>